<svg xmlns="http://www.w3.org/2000/svg" width="2320" height="2320" viewBox="0 0 58 58" shape-rendering="crispEdges">
<title>Robot VS</title>
<rect x="0" y="0" width="58" height="58" fill="#4d676f"/>
<g fill="#d87456">
<rect x="40" y="18" width="2" height="6"/>
<rect x="47" y="18" width="2" height="6"/>
<rect x="12" y="19" width="2" height="2"/>
<rect x="11" y="21" width="2" height="8"/>
<rect x="39" y="22" width="1" height="7"/>
<rect x="42" y="22" width="5" height="2"/>
<rect x="49" y="22" width="1" height="7"/>
<rect x="8" y="23" width="3" height="2"/>
<rect x="13" y="23" width="3" height="2"/>
<rect x="40" y="24" width="1" height="5"/>
<rect x="43" y="24" width="3" height="3"/>
<rect x="48" y="24" width="1" height="5"/>
<rect x="8" y="25" width="1" height="4"/>
<rect x="15" y="25" width="4" height="3"/>
<rect x="36" y="26" width="3" height="3"/>
<rect x="41" y="26" width="2" height="1"/>
<rect x="46" y="26" width="2" height="1"/>
<rect x="50" y="26" width="3" height="3"/>
<rect x="9" y="27" width="2" height="2"/>
<rect x="13" y="27" width="2" height="2"/>
<rect x="41" y="27" width="1" height="11"/>
<rect x="47" y="27" width="1" height="11"/>
<rect x="15" y="28" width="3" height="1"/>
<rect x="24" y="28" width="1" height="3"/>
<rect x="28" y="28" width="1" height="3"/>
<rect x="30" y="28" width="3" height="1"/>
<rect x="42" y="28" width="5" height="6"/>
<rect x="16" y="29" width="2" height="1"/>
<rect x="30" y="29" width="1" height="2"/>
<rect x="7" y="30" width="10" height="2"/>
<rect x="31" y="30" width="2" height="1"/>
<rect x="25" y="31" width="1" height="1"/>
<rect x="27" y="31" width="1" height="1"/>
<rect x="32" y="31" width="1" height="2"/>
<rect x="6" y="32" width="3" height="2"/>
<rect x="10" y="32" width="1" height="6"/>
<rect x="12" y="32" width="1" height="3"/>
<rect x="14" y="32" width="2" height="7"/>
<rect x="26" y="32" width="1" height="1"/>
<rect x="30" y="32" width="2" height="1"/>
<rect x="4" y="33" width="2" height="3"/>
<rect x="9" y="33" width="1" height="6"/>
<rect x="11" y="33" width="1" height="2"/>
<rect x="13" y="33" width="1" height="6"/>
<rect x="6" y="34" width="1" height="2"/>
<rect x="8" y="34" width="1" height="5"/>
<rect x="42" y="34" width="2" height="3"/>
<rect x="45" y="34" width="2" height="4"/>
<rect x="39" y="36" width="2" height="2"/>
<rect x="48" y="36" width="1" height="2"/>
<rect x="6" y="37" width="2" height="2"/>
<rect x="16" y="37" width="1" height="2"/>
<rect x="42" y="37" width="1" height="1"/>
</g></svg>